%TF.GenerationSoftware,KiCad,Pcbnew,(6.0.0)*%
%TF.CreationDate,2022-07-08T16:33:05-04:00*%
%TF.ProjectId,CH32V307_RCT6,43483332-5633-4303-975f-524354362e6b,rev?*%
%TF.SameCoordinates,Original*%
%TF.FileFunction,Soldermask,Bot*%
%TF.FilePolarity,Negative*%
%FSLAX46Y46*%
G04 Gerber Fmt 4.6, Leading zero omitted, Abs format (unit mm)*
G04 Created by KiCad (PCBNEW (6.0.0)) date 2022-07-08 16:33:05*
%MOMM*%
%LPD*%
G01*
G04 APERTURE LIST*
%ADD10R,1.700000X1.700000*%
%ADD11O,1.700000X1.700000*%
%ADD12O,1.100000X1.500000*%
%ADD13O,1.350000X1.700000*%
%ADD14R,1.350000X1.350000*%
%ADD15O,1.350000X1.350000*%
%ADD16C,1.200000*%
G04 APERTURE END LIST*
D10*
%TO.C,J7*%
X143650000Y-52000000D03*
D11*
X146190000Y-52000000D03*
X148730000Y-52000000D03*
X151270000Y-52000000D03*
X153810000Y-52000000D03*
X156350000Y-52000000D03*
%TD*%
D12*
%TO.C,J1*%
X166695000Y-54885000D03*
D13*
X167005000Y-51885000D03*
D12*
X161855000Y-54885000D03*
D13*
X161545000Y-51885000D03*
%TD*%
D10*
%TO.C,J4*%
X153800000Y-54500000D03*
D11*
X156340000Y-54500000D03*
%TD*%
D10*
%TO.C,J8*%
X164000000Y-128000000D03*
D11*
X161460000Y-128000000D03*
X158920000Y-128000000D03*
X156380000Y-128000000D03*
X153840000Y-128000000D03*
X151300000Y-128000000D03*
X148760000Y-128000000D03*
X146220000Y-128000000D03*
X143680000Y-128000000D03*
X141140000Y-128000000D03*
X138600000Y-128000000D03*
X136060000Y-128000000D03*
%TD*%
D10*
%TO.C,J3*%
X132250000Y-61960000D03*
D11*
X132250000Y-64500000D03*
X132250000Y-67040000D03*
X132250000Y-69580000D03*
X132250000Y-72120000D03*
X132250000Y-74660000D03*
X132250000Y-77200000D03*
X132250000Y-79740000D03*
X132250000Y-82280000D03*
X132250000Y-84820000D03*
X132250000Y-87360000D03*
X132250000Y-89900000D03*
X132250000Y-92440000D03*
X132250000Y-94980000D03*
X132250000Y-97520000D03*
X132250000Y-100060000D03*
X132250000Y-102600000D03*
X132250000Y-105140000D03*
X132250000Y-107680000D03*
X132250000Y-110220000D03*
X132250000Y-112760000D03*
X132250000Y-115300000D03*
X132250000Y-117840000D03*
X132250000Y-120380000D03*
X132250000Y-122920000D03*
X132250000Y-125460000D03*
X132250000Y-128000000D03*
%TD*%
D14*
%TO.C,JP2*%
X137750000Y-81250000D03*
D15*
X137750000Y-83250000D03*
X137750000Y-85250000D03*
%TD*%
D16*
%TO.C,J5*%
X163200000Y-63700000D03*
X163200000Y-71700000D03*
%TD*%
D10*
%TO.C,J6*%
X167750000Y-77160000D03*
D11*
X167750000Y-79700000D03*
X167750000Y-82240000D03*
X167750000Y-84780000D03*
X167750000Y-87320000D03*
X167750000Y-89860000D03*
X167750000Y-92400000D03*
X167750000Y-94940000D03*
X167750000Y-97480000D03*
X167750000Y-100020000D03*
X167750000Y-102560000D03*
X167750000Y-105100000D03*
X167750000Y-107640000D03*
X167750000Y-110180000D03*
X167750000Y-112720000D03*
X167750000Y-115260000D03*
X167750000Y-117800000D03*
X167750000Y-120340000D03*
X167750000Y-122880000D03*
X167750000Y-125420000D03*
X167750000Y-127960000D03*
%TD*%
D13*
%TO.C,J2*%
X133045000Y-51885000D03*
D12*
X138195000Y-54885000D03*
X133355000Y-54885000D03*
D13*
X138505000Y-51885000D03*
%TD*%
D14*
%TO.C,JP1*%
X161400000Y-103800000D03*
D15*
X161400000Y-101800000D03*
X161400000Y-99800000D03*
%TD*%
M02*
