M48
; DRILL file {KiCad (6.0.0)} date Fri Jul  8 16:33:20 2022
; FORMAT={-:-/ absolute / metric / decimal}
; #@! TF.CreationDate,2022-07-08T16:33:20-04:00
; #@! TF.GenerationSoftware,Kicad,Pcbnew,(6.0.0)
; #@! TF.FileFunction,Plated,1,4,PTH
FMAT,2
METRIC
; #@! TA.AperFunction,Plated,PTH,ViaDrill
T1C0.400
; #@! TA.AperFunction,Plated,PTH,ComponentDrill
T2C0.650
; #@! TA.AperFunction,Plated,PTH,ComponentDrill
T3C0.700
; #@! TA.AperFunction,Plated,PTH,ComponentDrill
T4C0.800
; #@! TA.AperFunction,Plated,PTH,ComponentDrill
T5C1.000
%
G90
G05
T1
X134.0Y-82.5
X134.5Y-59.25
X134.5Y-62.75
X134.5Y-65.75
X134.5Y-68.25
X134.5Y-70.75
X134.5Y-73.5
X134.5Y-75.75
X134.5Y-86.25
X134.5Y-88.5
X134.75Y-78.0
X134.75Y-114.0
X135.0Y-121.5
X135.25Y-103.75
X135.25Y-117.75
X135.5Y-109.75
X135.575Y-57.09
X135.75Y-80.75
X136.25Y-78.75
X136.25Y-84.25
X136.5Y-95.75
X136.5Y-100.0
X136.625Y-57.09
X136.75Y-98.0
X137.0Y-59.25
X137.0Y-62.75
X137.0Y-65.75
X137.0Y-68.25
X137.0Y-71.0
X137.0Y-73.75
X137.25Y-76.5
X137.5Y-123.75
X138.0Y-90.75
X139.0Y-107.75
X139.5Y-87.75
X139.5Y-125.75
X139.6Y-92.2
X139.75Y-59.5
X139.75Y-79.0
X139.75Y-82.5
X140.25Y-106.5
X141.5Y-88.25
X141.75Y-99.25
X142.0Y-91.0
X142.0Y-93.5
X142.0Y-119.5
X142.25Y-96.5
X142.5Y-66.0
X142.5Y-106.25
X143.0Y-89.0
X143.0Y-103.25
X143.25Y-125.75
X143.5Y-108.0
X143.75Y-73.25
X143.75Y-87.75
X144.25Y-80.0
X144.5Y-75.75
X144.589Y-97.839
X145.039Y-92.467
X145.25Y-101.5
X145.5Y-109.0
X146.0Y-58.25
X146.0Y-103.25
X146.0Y-119.25
X146.2Y-100.225
X146.25Y-111.5
X146.5Y-91.5
X146.8Y-70.2
X147.5Y-67.75
X147.5Y-89.475
X147.5Y-90.5
X147.75Y-92.5
X147.75Y-113.75
X148.0Y-79.5
X148.0Y-81.25
X148.0Y-124.5
X148.25Y-65.5
X148.25Y-101.75
X148.5Y-74.0
X148.5Y-76.0
X148.5Y-88.25
X148.75Y-91.25
X149.5Y-96.25
X149.75Y-72.75
X150.0Y-59.0
X150.0Y-62.25
X150.0Y-64.25
X150.0Y-103.0
X150.25Y-114.5
X150.25Y-124.5
X150.489Y-83.265
X150.5Y-85.25
X150.5Y-87.725
X150.5Y-88.775
X150.5Y-92.75
X150.5Y-99.5
X151.0Y-78.5
X151.0Y-81.0
X151.25Y-90.25
X151.5Y-117.5
X151.5Y-125.5
X151.75Y-94.25
X152.0Y-76.5
X152.0Y-95.8
X152.25Y-101.75
X152.25Y-103.0
X152.274Y-84.25
X152.5Y-89.25
X153.0Y-119.25
X153.2Y-95.0
X153.5Y-77.25
X153.5Y-90.25
X153.7Y-67.8
X154.25Y-80.5
X154.25Y-92.75
X154.25Y-120.5
X154.45Y-82.75
X154.5Y-122.75
X154.701Y-100.5
X154.75Y-79.25
X154.75Y-81.5
X155.0Y-84.75
X155.414Y-97.8
X156.0Y-58.75
X156.0Y-125.2
X156.25Y-76.0
X157.25Y-81.5
X157.25Y-83.5
X157.25Y-86.0
X157.25Y-93.0
X157.5Y-79.0
X157.6Y-123.2
X157.701Y-105.75
X157.8Y-95.4
X158.0Y-80.25
X158.0Y-84.5
X158.0Y-96.501
X158.2Y-111.2
X158.25Y-82.5
X159.0Y-90.25
X159.2Y-108.25
X159.8Y-101.6
X160.25Y-58.5
X160.75Y-98.0
X161.0Y-76.0
X161.0Y-122.0
X161.25Y-118.75
X162.0Y-110.75
X162.0Y-114.5
X162.25Y-88.75
X163.0Y-56.5
X163.75Y-66.25
X163.75Y-69.25
X163.75Y-75.75
X163.75Y-81.0
X163.75Y-83.5
X163.75Y-86.25
X163.75Y-95.25
X163.75Y-106.25
X164.075Y-57.0
X164.25Y-124.5
X164.265Y-104.254
X164.5Y-91.0
X164.75Y-94.0
X164.75Y-113.5
X165.125Y-57.0
X165.25Y-109.75
X165.5Y-103.25
X165.5Y-116.5
X165.75Y-89.25
X165.75Y-101.0
X165.75Y-123.25
X166.0Y-58.5
X166.25Y-64.0
X166.25Y-67.5
X166.25Y-72.0
X166.25Y-81.0
X166.25Y-83.5
X166.25Y-86.0
X166.5Y-75.0
X167.25Y-56.5
T4
X137.75Y-81.25
X137.75Y-83.25
X137.75Y-85.25
X161.4Y-99.8
X161.4Y-101.8
X161.4Y-103.8
T5
X132.25Y-61.96
X132.25Y-64.5
X132.25Y-67.04
X132.25Y-69.58
X132.25Y-72.12
X132.25Y-74.66
X132.25Y-77.2
X132.25Y-79.74
X132.25Y-82.28
X132.25Y-84.82
X132.25Y-87.36
X132.25Y-89.9
X132.25Y-92.44
X132.25Y-94.98
X132.25Y-97.52
X132.25Y-100.06
X132.25Y-102.6
X132.25Y-105.14
X132.25Y-107.68
X132.25Y-110.22
X132.25Y-112.76
X132.25Y-115.3
X132.25Y-117.84
X132.25Y-120.38
X132.25Y-122.92
X132.25Y-125.46
X132.25Y-128.0
X136.06Y-128.0
X138.6Y-128.0
X141.14Y-128.0
X143.65Y-52.0
X143.68Y-128.0
X146.19Y-52.0
X146.22Y-128.0
X148.73Y-52.0
X148.76Y-128.0
X151.27Y-52.0
X151.3Y-128.0
X153.8Y-54.5
X153.81Y-52.0
X153.84Y-128.0
X156.34Y-54.5
X156.35Y-52.0
X156.38Y-128.0
X158.92Y-128.0
X161.46Y-128.0
X164.0Y-128.0
X167.75Y-77.16
X167.75Y-79.7
X167.75Y-82.24
X167.75Y-84.78
X167.75Y-87.32
X167.75Y-89.86
X167.75Y-92.4
X167.75Y-94.94
X167.75Y-97.48
X167.75Y-100.02
X167.75Y-102.56
X167.75Y-105.1
X167.75Y-107.64
X167.75Y-110.18
X167.75Y-112.72
X167.75Y-115.26
X167.75Y-117.8
X167.75Y-120.34
X167.75Y-122.88
X167.75Y-125.42
X167.75Y-127.96
T2
X133.355Y-54.685G85X133.355Y-55.085
G05
X138.195Y-54.685G85X138.195Y-55.085
G05
X161.855Y-54.685G85X161.855Y-55.085
G05
X166.695Y-54.685G85X166.695Y-55.085
G05
T3
X133.045Y-51.635G85X133.045Y-52.135
G05
X138.505Y-51.635G85X138.505Y-52.135
G05
X161.545Y-51.635G85X161.545Y-52.135
G05
X167.005Y-51.635G85X167.005Y-52.135
G05
T0
M30
