%TF.GenerationSoftware,KiCad,Pcbnew,(6.0.0)*%
%TF.CreationDate,2022-07-08T16:33:05-04:00*%
%TF.ProjectId,CH32V307_RCT6,43483332-5633-4303-975f-524354362e6b,rev?*%
%TF.SameCoordinates,Original*%
%TF.FileFunction,Soldermask,Top*%
%TF.FilePolarity,Negative*%
%FSLAX46Y46*%
G04 Gerber Fmt 4.6, Leading zero omitted, Abs format (unit mm)*
G04 Created by KiCad (PCBNEW (6.0.0)) date 2022-07-08 16:33:05*
%MOMM*%
%LPD*%
G01*
G04 APERTURE LIST*
G04 Aperture macros list*
%AMRoundRect*
0 Rectangle with rounded corners*
0 $1 Rounding radius*
0 $2 $3 $4 $5 $6 $7 $8 $9 X,Y pos of 4 corners*
0 Add a 4 corners polygon primitive as box body*
4,1,4,$2,$3,$4,$5,$6,$7,$8,$9,$2,$3,0*
0 Add four circle primitives for the rounded corners*
1,1,$1+$1,$2,$3*
1,1,$1+$1,$4,$5*
1,1,$1+$1,$6,$7*
1,1,$1+$1,$8,$9*
0 Add four rect primitives between the rounded corners*
20,1,$1+$1,$2,$3,$4,$5,0*
20,1,$1+$1,$4,$5,$6,$7,0*
20,1,$1+$1,$6,$7,$8,$9,0*
20,1,$1+$1,$8,$9,$2,$3,0*%
%AMFreePoly0*
4,1,9,3.862500,-0.866500,0.737500,-0.866500,0.737500,-0.450000,-0.737500,-0.450000,-0.737500,0.450000,0.737500,0.450000,0.737500,0.866500,3.862500,0.866500,3.862500,-0.866500,3.862500,-0.866500,$1*%
G04 Aperture macros list end*
%ADD10RoundRect,0.237500X0.344715X-0.008839X-0.008839X0.344715X-0.344715X0.008839X0.008839X-0.344715X0*%
%ADD11RoundRect,0.237500X0.237500X-0.300000X0.237500X0.300000X-0.237500X0.300000X-0.237500X-0.300000X0*%
%ADD12RoundRect,0.237500X0.237500X-0.250000X0.237500X0.250000X-0.237500X0.250000X-0.237500X-0.250000X0*%
%ADD13RoundRect,0.250000X-0.425000X0.450000X-0.425000X-0.450000X0.425000X-0.450000X0.425000X0.450000X0*%
%ADD14R,1.700000X1.700000*%
%ADD15O,1.700000X1.700000*%
%ADD16RoundRect,0.237500X-0.344715X0.008839X0.008839X-0.344715X0.344715X-0.008839X-0.008839X0.344715X0*%
%ADD17RoundRect,0.237500X0.300000X0.237500X-0.300000X0.237500X-0.300000X-0.237500X0.300000X-0.237500X0*%
%ADD18RoundRect,0.075000X-0.441942X-0.548008X0.548008X0.441942X0.441942X0.548008X-0.548008X-0.441942X0*%
%ADD19RoundRect,0.075000X0.441942X-0.548008X0.548008X-0.441942X-0.441942X0.548008X-0.548008X0.441942X0*%
%ADD20RoundRect,0.237500X-0.237500X0.250000X-0.237500X-0.250000X0.237500X-0.250000X0.237500X0.250000X0*%
%ADD21R,0.900000X1.200000*%
%ADD22R,1.400000X1.150000*%
%ADD23R,0.400000X1.650000*%
%ADD24O,1.100000X1.500000*%
%ADD25R,1.825000X0.700000*%
%ADD26R,1.430000X2.500000*%
%ADD27O,1.350000X1.700000*%
%ADD28R,1.350000X2.000000*%
%ADD29R,2.000000X1.500000*%
%ADD30R,1.700000X0.900000*%
%ADD31R,0.900000X1.300000*%
%ADD32FreePoly0,90.000000*%
%ADD33RoundRect,0.237500X-0.300000X-0.237500X0.300000X-0.237500X0.300000X0.237500X-0.300000X0.237500X0*%
%ADD34RoundRect,0.250000X0.250000X0.475000X-0.250000X0.475000X-0.250000X-0.475000X0.250000X-0.475000X0*%
%ADD35R,1.350000X1.350000*%
%ADD36O,1.350000X1.350000*%
%ADD37RoundRect,0.237500X0.287500X0.237500X-0.287500X0.237500X-0.287500X-0.237500X0.287500X-0.237500X0*%
%ADD38C,1.200000*%
%ADD39R,1.600000X0.700000*%
%ADD40R,1.500000X1.200000*%
%ADD41R,2.200000X1.200000*%
%ADD42R,1.500000X1.600000*%
%ADD43RoundRect,0.237500X-0.380070X0.044194X0.044194X-0.380070X0.380070X-0.044194X-0.044194X0.380070X0*%
%ADD44RoundRect,0.250000X-0.475000X0.250000X-0.475000X-0.250000X0.475000X-0.250000X0.475000X0.250000X0*%
%ADD45RoundRect,0.237500X-0.287500X-0.237500X0.287500X-0.237500X0.287500X0.237500X-0.287500X0.237500X0*%
%ADD46RoundRect,0.237500X-0.044194X-0.380070X0.380070X0.044194X0.044194X0.380070X-0.380070X-0.044194X0*%
%ADD47RoundRect,0.237500X-0.237500X0.300000X-0.237500X-0.300000X0.237500X-0.300000X0.237500X0.300000X0*%
G04 APERTURE END LIST*
D10*
%TO.C,R10*%
X141645235Y-86645235D03*
X140354765Y-85354765D03*
%TD*%
D11*
%TO.C,C2*%
X151200000Y-84000000D03*
X151200000Y-82275000D03*
%TD*%
D12*
%TO.C,R11*%
X148000000Y-83912500D03*
X148000000Y-82087500D03*
%TD*%
D13*
%TO.C,C12*%
X147000000Y-60650000D03*
X147000000Y-63350000D03*
%TD*%
D14*
%TO.C,J7*%
X143650000Y-52000000D03*
D15*
X146190000Y-52000000D03*
X148730000Y-52000000D03*
X151270000Y-52000000D03*
X153810000Y-52000000D03*
X156350000Y-52000000D03*
%TD*%
D16*
%TO.C,R2*%
X160354765Y-90754765D03*
X161645235Y-92045235D03*
%TD*%
D17*
%TO.C,C17*%
X164612500Y-77250000D03*
X162887500Y-77250000D03*
%TD*%
D13*
%TO.C,C13*%
X138750000Y-61250000D03*
X138750000Y-63950000D03*
%TD*%
D18*
%TO.C,U1*%
X143335519Y-93861181D03*
X143689072Y-94214734D03*
X144042625Y-94568287D03*
X144396179Y-94921841D03*
X144749732Y-95275394D03*
X145103286Y-95628948D03*
X145456839Y-95982501D03*
X145810392Y-96336054D03*
X146163946Y-96689608D03*
X146517499Y-97043161D03*
X146871052Y-97396714D03*
X147224606Y-97750268D03*
X147578159Y-98103821D03*
X147931713Y-98457375D03*
X148285266Y-98810928D03*
X148638819Y-99164481D03*
D19*
X151361181Y-99164481D03*
X151714734Y-98810928D03*
X152068287Y-98457375D03*
X152421841Y-98103821D03*
X152775394Y-97750268D03*
X153128948Y-97396714D03*
X153482501Y-97043161D03*
X153836054Y-96689608D03*
X154189608Y-96336054D03*
X154543161Y-95982501D03*
X154896714Y-95628948D03*
X155250268Y-95275394D03*
X155603821Y-94921841D03*
X155957375Y-94568287D03*
X156310928Y-94214734D03*
X156664481Y-93861181D03*
D18*
X156664481Y-91138819D03*
X156310928Y-90785266D03*
X155957375Y-90431713D03*
X155603821Y-90078159D03*
X155250268Y-89724606D03*
X154896714Y-89371052D03*
X154543161Y-89017499D03*
X154189608Y-88663946D03*
X153836054Y-88310392D03*
X153482501Y-87956839D03*
X153128948Y-87603286D03*
X152775394Y-87249732D03*
X152421841Y-86896179D03*
X152068287Y-86542625D03*
X151714734Y-86189072D03*
X151361181Y-85835519D03*
D19*
X148638819Y-85835519D03*
X148285266Y-86189072D03*
X147931713Y-86542625D03*
X147578159Y-86896179D03*
X147224606Y-87249732D03*
X146871052Y-87603286D03*
X146517499Y-87956839D03*
X146163946Y-88310392D03*
X145810392Y-88663946D03*
X145456839Y-89017499D03*
X145103286Y-89371052D03*
X144749732Y-89724606D03*
X144396179Y-90078159D03*
X144042625Y-90431713D03*
X143689072Y-90785266D03*
X143335519Y-91138819D03*
%TD*%
D20*
%TO.C,R7*%
X154200000Y-102087500D03*
X154200000Y-103912500D03*
%TD*%
D21*
%TO.C,D1*%
X147350000Y-56250000D03*
X150650000Y-56250000D03*
%TD*%
D20*
%TO.C,R8*%
X153000000Y-105837500D03*
X153000000Y-107662500D03*
%TD*%
D22*
%TO.C,Y1*%
X138150000Y-100500000D03*
X140350000Y-100500000D03*
X140350000Y-98900000D03*
X138150000Y-98900000D03*
%TD*%
D23*
%TO.C,J1*%
X165575000Y-54765000D03*
X164925000Y-54765000D03*
X164275000Y-54765000D03*
X163625000Y-54765000D03*
X162975000Y-54765000D03*
D24*
X166695000Y-54885000D03*
D25*
X167225000Y-53565000D03*
D26*
X165235000Y-51615000D03*
D25*
X161275000Y-53565000D03*
D27*
X167005000Y-51885000D03*
D28*
X161525000Y-52815000D03*
D26*
X163315000Y-51615000D03*
D29*
X167125000Y-54865000D03*
D24*
X161855000Y-54885000D03*
D29*
X161375000Y-54885000D03*
D27*
X161545000Y-51885000D03*
D28*
X167005000Y-52815000D03*
%TD*%
D21*
%TO.C,D2*%
X145400000Y-56250000D03*
X142100000Y-56250000D03*
%TD*%
D17*
%TO.C,C10*%
X150112500Y-68000000D03*
X148387500Y-68000000D03*
%TD*%
D20*
%TO.C,R5*%
X156600000Y-102087500D03*
X156600000Y-103912500D03*
%TD*%
D14*
%TO.C,J4*%
X153800000Y-54500000D03*
D15*
X156340000Y-54500000D03*
%TD*%
D14*
%TO.C,J8*%
X164000000Y-128000000D03*
D15*
X161460000Y-128000000D03*
X158920000Y-128000000D03*
X156380000Y-128000000D03*
X153840000Y-128000000D03*
X151300000Y-128000000D03*
X148760000Y-128000000D03*
X146220000Y-128000000D03*
X143680000Y-128000000D03*
X141140000Y-128000000D03*
X138600000Y-128000000D03*
X136060000Y-128000000D03*
%TD*%
D30*
%TO.C,SW1*%
X138750000Y-106250000D03*
X138750000Y-109650000D03*
%TD*%
D31*
%TO.C,U2*%
X141500000Y-62150000D03*
D32*
X143000000Y-62062500D03*
D31*
X144500000Y-62150000D03*
%TD*%
D14*
%TO.C,J3*%
X132250000Y-61960000D03*
D15*
X132250000Y-64500000D03*
X132250000Y-67040000D03*
X132250000Y-69580000D03*
X132250000Y-72120000D03*
X132250000Y-74660000D03*
X132250000Y-77200000D03*
X132250000Y-79740000D03*
X132250000Y-82280000D03*
X132250000Y-84820000D03*
X132250000Y-87360000D03*
X132250000Y-89900000D03*
X132250000Y-92440000D03*
X132250000Y-94980000D03*
X132250000Y-97520000D03*
X132250000Y-100060000D03*
X132250000Y-102600000D03*
X132250000Y-105140000D03*
X132250000Y-107680000D03*
X132250000Y-110220000D03*
X132250000Y-112760000D03*
X132250000Y-115300000D03*
X132250000Y-117840000D03*
X132250000Y-120380000D03*
X132250000Y-122920000D03*
X132250000Y-125460000D03*
X132250000Y-128000000D03*
%TD*%
D12*
%TO.C,R12*%
X143500000Y-83162500D03*
X143500000Y-81337500D03*
%TD*%
D17*
%TO.C,C3*%
X141712500Y-93000000D03*
X139987500Y-93000000D03*
%TD*%
D33*
%TO.C,C19*%
X134887500Y-125000000D03*
X136612500Y-125000000D03*
%TD*%
D34*
%TO.C,C14*%
X142700000Y-64250000D03*
X140800000Y-64250000D03*
%TD*%
D33*
%TO.C,C18*%
X157637500Y-125250000D03*
X159362500Y-125250000D03*
%TD*%
D20*
%TO.C,R6*%
X155400000Y-105837500D03*
X155400000Y-107662500D03*
%TD*%
D35*
%TO.C,JP2*%
X137750000Y-81250000D03*
D36*
X137750000Y-83250000D03*
X137750000Y-85250000D03*
%TD*%
D37*
%TO.C,F2*%
X155875000Y-57250000D03*
X154125000Y-57250000D03*
%TD*%
D38*
%TO.C,J5*%
X163200000Y-63700000D03*
X163200000Y-71700000D03*
D39*
X152200000Y-64500000D03*
X152200000Y-65600000D03*
X152200000Y-66700000D03*
X152200000Y-67800000D03*
X152200000Y-68900000D03*
X152200000Y-70000000D03*
X152200000Y-71100000D03*
X152200000Y-72200000D03*
D40*
X153200000Y-74500000D03*
D41*
X162800000Y-74500000D03*
D42*
X153200000Y-59900000D03*
D41*
X162800000Y-59000000D03*
D39*
X152200000Y-73300000D03*
%TD*%
D43*
%TO.C,C6*%
X157990120Y-93390120D03*
X159209880Y-94609880D03*
%TD*%
D17*
%TO.C,C15*%
X136362500Y-90000000D03*
X134637500Y-90000000D03*
%TD*%
D20*
%TO.C,R9*%
X159000000Y-97887500D03*
X159000000Y-99712500D03*
%TD*%
D14*
%TO.C,J6*%
X167750000Y-77160000D03*
D15*
X167750000Y-79700000D03*
X167750000Y-82240000D03*
X167750000Y-84780000D03*
X167750000Y-87320000D03*
X167750000Y-89860000D03*
X167750000Y-92400000D03*
X167750000Y-94940000D03*
X167750000Y-97480000D03*
X167750000Y-100020000D03*
X167750000Y-102560000D03*
X167750000Y-105100000D03*
X167750000Y-107640000D03*
X167750000Y-110180000D03*
X167750000Y-112720000D03*
X167750000Y-115260000D03*
X167750000Y-117800000D03*
X167750000Y-120340000D03*
X167750000Y-122880000D03*
X167750000Y-125420000D03*
X167750000Y-127960000D03*
%TD*%
D44*
%TO.C,C11*%
X144700000Y-64050000D03*
X144700000Y-65950000D03*
%TD*%
D12*
%TO.C,R14*%
X141000000Y-83162500D03*
X141000000Y-81337500D03*
%TD*%
D20*
%TO.C,R15*%
X141250000Y-104587500D03*
X141250000Y-106412500D03*
%TD*%
D45*
%TO.C,F1*%
X138625000Y-57000000D03*
X140375000Y-57000000D03*
%TD*%
D17*
%TO.C,C7*%
X139612500Y-104700000D03*
X137887500Y-104700000D03*
%TD*%
%TO.C,C4*%
X152262500Y-101000000D03*
X150537500Y-101000000D03*
%TD*%
D23*
%TO.C,J2*%
X137075000Y-54765000D03*
X136425000Y-54765000D03*
X135775000Y-54765000D03*
X135125000Y-54765000D03*
X134475000Y-54765000D03*
D27*
X133045000Y-51885000D03*
D24*
X138195000Y-54885000D03*
D28*
X133025000Y-52815000D03*
X138505000Y-52815000D03*
D29*
X138625000Y-54865000D03*
D25*
X132775000Y-53565000D03*
D24*
X133355000Y-54885000D03*
D26*
X134815000Y-51615000D03*
X136735000Y-51615000D03*
D27*
X138505000Y-51885000D03*
D29*
X132875000Y-54885000D03*
D25*
X138725000Y-53565000D03*
%TD*%
D16*
%TO.C,R4*%
X160709530Y-95709530D03*
X162000000Y-97000000D03*
%TD*%
D12*
%TO.C,R13*%
X142250000Y-79662500D03*
X142250000Y-77837500D03*
%TD*%
D46*
%TO.C,C1*%
X140890120Y-90609880D03*
X142109880Y-89390120D03*
%TD*%
D33*
%TO.C,C8*%
X138637500Y-97200000D03*
X140362500Y-97200000D03*
%TD*%
D35*
%TO.C,JP1*%
X161400000Y-103800000D03*
D36*
X161400000Y-101800000D03*
X161400000Y-99800000D03*
%TD*%
D17*
%TO.C,C16*%
X136362500Y-92500000D03*
X134637500Y-92500000D03*
%TD*%
D16*
%TO.C,R3*%
X160554765Y-93154765D03*
X161845235Y-94445235D03*
%TD*%
%TO.C,R1*%
X160754765Y-88954765D03*
X162045235Y-90245235D03*
%TD*%
D47*
%TO.C,C5*%
X146000000Y-99637500D03*
X146000000Y-101362500D03*
%TD*%
D33*
%TO.C,C9*%
X138387500Y-102200000D03*
X140112500Y-102200000D03*
%TD*%
M02*
