%TF.GenerationSoftware,KiCad,Pcbnew,(6.0.0)*%
%TF.CreationDate,2022-07-08T16:33:05-04:00*%
%TF.ProjectId,CH32V307_RCT6,43483332-5633-4303-975f-524354362e6b,rev?*%
%TF.SameCoordinates,Original*%
%TF.FileFunction,Legend,Top*%
%TF.FilePolarity,Positive*%
%FSLAX46Y46*%
G04 Gerber Fmt 4.6, Leading zero omitted, Abs format (unit mm)*
G04 Created by KiCad (PCBNEW (6.0.0)) date 2022-07-08 16:33:05*
%MOMM*%
%LPD*%
G01*
G04 APERTURE LIST*
%ADD10C,0.150000*%
%ADD11C,0.152000*%
%ADD12C,0.120000*%
%ADD13C,0.254000*%
G04 APERTURE END LIST*
D10*
%TO.C,R10*%
X141024450Y-87134687D02*
X140923435Y-87707106D01*
X141428511Y-87538748D02*
X140721404Y-88245854D01*
X140452030Y-87976480D01*
X140418358Y-87875465D01*
X140418358Y-87808122D01*
X140452030Y-87707106D01*
X140553045Y-87606091D01*
X140654061Y-87572419D01*
X140721404Y-87572419D01*
X140822419Y-87606091D01*
X141091793Y-87875465D01*
X140351015Y-86461251D02*
X140755076Y-86865312D01*
X140553045Y-86663282D02*
X139845938Y-87370389D01*
X140014297Y-87336717D01*
X140148984Y-87336717D01*
X140250000Y-87370389D01*
X139206175Y-86730625D02*
X139138832Y-86663282D01*
X139105160Y-86562267D01*
X139105160Y-86494923D01*
X139138832Y-86393908D01*
X139239847Y-86225549D01*
X139408206Y-86057190D01*
X139576564Y-85956175D01*
X139677580Y-85922503D01*
X139744923Y-85922503D01*
X139845938Y-85956175D01*
X139913282Y-86023519D01*
X139946954Y-86124534D01*
X139946954Y-86191877D01*
X139913282Y-86292893D01*
X139812267Y-86461251D01*
X139643908Y-86629610D01*
X139475549Y-86730625D01*
X139374534Y-86764297D01*
X139307190Y-86764297D01*
X139206175Y-86730625D01*
%TO.C,C2*%
X150127142Y-83304166D02*
X150174761Y-83351785D01*
X150222380Y-83494642D01*
X150222380Y-83589880D01*
X150174761Y-83732738D01*
X150079523Y-83827976D01*
X149984285Y-83875595D01*
X149793809Y-83923214D01*
X149650952Y-83923214D01*
X149460476Y-83875595D01*
X149365238Y-83827976D01*
X149270000Y-83732738D01*
X149222380Y-83589880D01*
X149222380Y-83494642D01*
X149270000Y-83351785D01*
X149317619Y-83304166D01*
X149317619Y-82923214D02*
X149270000Y-82875595D01*
X149222380Y-82780357D01*
X149222380Y-82542261D01*
X149270000Y-82447023D01*
X149317619Y-82399404D01*
X149412857Y-82351785D01*
X149508095Y-82351785D01*
X149650952Y-82399404D01*
X150222380Y-82970833D01*
X150222380Y-82351785D01*
%TO.C,R11*%
X147022380Y-83642857D02*
X146546190Y-83976190D01*
X147022380Y-84214285D02*
X146022380Y-84214285D01*
X146022380Y-83833333D01*
X146070000Y-83738095D01*
X146117619Y-83690476D01*
X146212857Y-83642857D01*
X146355714Y-83642857D01*
X146450952Y-83690476D01*
X146498571Y-83738095D01*
X146546190Y-83833333D01*
X146546190Y-84214285D01*
X147022380Y-82690476D02*
X147022380Y-83261904D01*
X147022380Y-82976190D02*
X146022380Y-82976190D01*
X146165238Y-83071428D01*
X146260476Y-83166666D01*
X146308095Y-83261904D01*
X147022380Y-81738095D02*
X147022380Y-82309523D01*
X147022380Y-82023809D02*
X146022380Y-82023809D01*
X146165238Y-82119047D01*
X146260476Y-82214285D01*
X146308095Y-82309523D01*
%TO.C,C12*%
X149107142Y-62642857D02*
X149154761Y-62690476D01*
X149202380Y-62833333D01*
X149202380Y-62928571D01*
X149154761Y-63071428D01*
X149059523Y-63166666D01*
X148964285Y-63214285D01*
X148773809Y-63261904D01*
X148630952Y-63261904D01*
X148440476Y-63214285D01*
X148345238Y-63166666D01*
X148250000Y-63071428D01*
X148202380Y-62928571D01*
X148202380Y-62833333D01*
X148250000Y-62690476D01*
X148297619Y-62642857D01*
X149202380Y-61690476D02*
X149202380Y-62261904D01*
X149202380Y-61976190D02*
X148202380Y-61976190D01*
X148345238Y-62071428D01*
X148440476Y-62166666D01*
X148488095Y-62261904D01*
X148297619Y-61309523D02*
X148250000Y-61261904D01*
X148202380Y-61166666D01*
X148202380Y-60928571D01*
X148250000Y-60833333D01*
X148297619Y-60785714D01*
X148392857Y-60738095D01*
X148488095Y-60738095D01*
X148630952Y-60785714D01*
X149202380Y-61357142D01*
X149202380Y-60738095D01*
%TO.C,J7*%
X140772380Y-52333333D02*
X141486666Y-52333333D01*
X141629523Y-52380952D01*
X141724761Y-52476190D01*
X141772380Y-52619047D01*
X141772380Y-52714285D01*
X140772380Y-51952380D02*
X140772380Y-51285714D01*
X141772380Y-51714285D01*
%TO.C,R2*%
X163687732Y-93547969D02*
X163586717Y-94120389D01*
X164091793Y-93952030D02*
X163384687Y-94659137D01*
X163115312Y-94389763D01*
X163081641Y-94288748D01*
X163081641Y-94221404D01*
X163115312Y-94120389D01*
X163216328Y-94019374D01*
X163317343Y-93985702D01*
X163384687Y-93985702D01*
X163485702Y-94019374D01*
X163755076Y-94288748D01*
X162778595Y-93918358D02*
X162711251Y-93918358D01*
X162610236Y-93884687D01*
X162441877Y-93716328D01*
X162408206Y-93615312D01*
X162408206Y-93547969D01*
X162441877Y-93446954D01*
X162509221Y-93379610D01*
X162643908Y-93312267D01*
X163452030Y-93312267D01*
X163014297Y-92874534D01*
%TO.C,C17*%
X163107142Y-79037142D02*
X163059523Y-79084761D01*
X162916666Y-79132380D01*
X162821428Y-79132380D01*
X162678571Y-79084761D01*
X162583333Y-78989523D01*
X162535714Y-78894285D01*
X162488095Y-78703809D01*
X162488095Y-78560952D01*
X162535714Y-78370476D01*
X162583333Y-78275238D01*
X162678571Y-78180000D01*
X162821428Y-78132380D01*
X162916666Y-78132380D01*
X163059523Y-78180000D01*
X163107142Y-78227619D01*
X164059523Y-79132380D02*
X163488095Y-79132380D01*
X163773809Y-79132380D02*
X163773809Y-78132380D01*
X163678571Y-78275238D01*
X163583333Y-78370476D01*
X163488095Y-78418095D01*
X164392857Y-78132380D02*
X165059523Y-78132380D01*
X164630952Y-79132380D01*
%TO.C,C13*%
X137107142Y-63142857D02*
X137154761Y-63190476D01*
X137202380Y-63333333D01*
X137202380Y-63428571D01*
X137154761Y-63571428D01*
X137059523Y-63666666D01*
X136964285Y-63714285D01*
X136773809Y-63761904D01*
X136630952Y-63761904D01*
X136440476Y-63714285D01*
X136345238Y-63666666D01*
X136250000Y-63571428D01*
X136202380Y-63428571D01*
X136202380Y-63333333D01*
X136250000Y-63190476D01*
X136297619Y-63142857D01*
X137202380Y-62190476D02*
X137202380Y-62761904D01*
X137202380Y-62476190D02*
X136202380Y-62476190D01*
X136345238Y-62571428D01*
X136440476Y-62666666D01*
X136488095Y-62761904D01*
X136202380Y-61857142D02*
X136202380Y-61238095D01*
X136583333Y-61571428D01*
X136583333Y-61428571D01*
X136630952Y-61333333D01*
X136678571Y-61285714D01*
X136773809Y-61238095D01*
X137011904Y-61238095D01*
X137107142Y-61285714D01*
X137154761Y-61333333D01*
X137202380Y-61428571D01*
X137202380Y-61714285D01*
X137154761Y-61809523D01*
X137107142Y-61857142D01*
%TO.C,U1*%
X143841436Y-87418932D02*
X144413856Y-87991352D01*
X144514871Y-88025024D01*
X144582215Y-88025024D01*
X144683230Y-87991352D01*
X144817917Y-87856665D01*
X144851589Y-87755650D01*
X144851589Y-87688306D01*
X144817917Y-87587291D01*
X144245497Y-87014871D01*
X145659711Y-87014871D02*
X145255650Y-87418932D01*
X145457680Y-87216902D02*
X144750574Y-86509795D01*
X144784245Y-86678154D01*
X144784245Y-86812841D01*
X144750574Y-86913856D01*
%TO.C,R7*%
X153452380Y-103166666D02*
X152976190Y-103500000D01*
X153452380Y-103738095D02*
X152452380Y-103738095D01*
X152452380Y-103357142D01*
X152500000Y-103261904D01*
X152547619Y-103214285D01*
X152642857Y-103166666D01*
X152785714Y-103166666D01*
X152880952Y-103214285D01*
X152928571Y-103261904D01*
X152976190Y-103357142D01*
X152976190Y-103738095D01*
X152452380Y-102833333D02*
X152452380Y-102166666D01*
X153452380Y-102595238D01*
%TO.C,D1*%
X148261904Y-54702380D02*
X148261904Y-53702380D01*
X148500000Y-53702380D01*
X148642857Y-53750000D01*
X148738095Y-53845238D01*
X148785714Y-53940476D01*
X148833333Y-54130952D01*
X148833333Y-54273809D01*
X148785714Y-54464285D01*
X148738095Y-54559523D01*
X148642857Y-54654761D01*
X148500000Y-54702380D01*
X148261904Y-54702380D01*
X149785714Y-54702380D02*
X149214285Y-54702380D01*
X149500000Y-54702380D02*
X149500000Y-53702380D01*
X149404761Y-53845238D01*
X149309523Y-53940476D01*
X149214285Y-53988095D01*
%TO.C,R8*%
X152002380Y-106916666D02*
X151526190Y-107250000D01*
X152002380Y-107488095D02*
X151002380Y-107488095D01*
X151002380Y-107107142D01*
X151050000Y-107011904D01*
X151097619Y-106964285D01*
X151192857Y-106916666D01*
X151335714Y-106916666D01*
X151430952Y-106964285D01*
X151478571Y-107011904D01*
X151526190Y-107107142D01*
X151526190Y-107488095D01*
X151430952Y-106345238D02*
X151383333Y-106440476D01*
X151335714Y-106488095D01*
X151240476Y-106535714D01*
X151192857Y-106535714D01*
X151097619Y-106488095D01*
X151050000Y-106440476D01*
X151002380Y-106345238D01*
X151002380Y-106154761D01*
X151050000Y-106059523D01*
X151097619Y-106011904D01*
X151192857Y-105964285D01*
X151240476Y-105964285D01*
X151335714Y-106011904D01*
X151383333Y-106059523D01*
X151430952Y-106154761D01*
X151430952Y-106345238D01*
X151478571Y-106440476D01*
X151526190Y-106488095D01*
X151621428Y-106535714D01*
X151811904Y-106535714D01*
X151907142Y-106488095D01*
X151954761Y-106440476D01*
X152002380Y-106345238D01*
X152002380Y-106154761D01*
X151954761Y-106059523D01*
X151907142Y-106011904D01*
X151811904Y-105964285D01*
X151621428Y-105964285D01*
X151526190Y-106011904D01*
X151478571Y-106059523D01*
X151430952Y-106154761D01*
%TO.C,Y1*%
X135023809Y-98976190D02*
X135023809Y-99452380D01*
X134690476Y-98452380D02*
X135023809Y-98976190D01*
X135357142Y-98452380D01*
X136214285Y-99452380D02*
X135642857Y-99452380D01*
X135928571Y-99452380D02*
X135928571Y-98452380D01*
X135833333Y-98595238D01*
X135738095Y-98690476D01*
X135642857Y-98738095D01*
%TO.C,J1*%
X161416666Y-56452380D02*
X161416666Y-57166666D01*
X161369047Y-57309523D01*
X161273809Y-57404761D01*
X161130952Y-57452380D01*
X161035714Y-57452380D01*
X162416666Y-57452380D02*
X161845238Y-57452380D01*
X162130952Y-57452380D02*
X162130952Y-56452380D01*
X162035714Y-56595238D01*
X161940476Y-56690476D01*
X161845238Y-56738095D01*
%TO.C,D2*%
X143011904Y-54952380D02*
X143011904Y-53952380D01*
X143250000Y-53952380D01*
X143392857Y-54000000D01*
X143488095Y-54095238D01*
X143535714Y-54190476D01*
X143583333Y-54380952D01*
X143583333Y-54523809D01*
X143535714Y-54714285D01*
X143488095Y-54809523D01*
X143392857Y-54904761D01*
X143250000Y-54952380D01*
X143011904Y-54952380D01*
X143964285Y-54047619D02*
X144011904Y-54000000D01*
X144107142Y-53952380D01*
X144345238Y-53952380D01*
X144440476Y-54000000D01*
X144488095Y-54047619D01*
X144535714Y-54142857D01*
X144535714Y-54238095D01*
X144488095Y-54380952D01*
X143916666Y-54952380D01*
X144535714Y-54952380D01*
%TO.C,C10*%
X148607142Y-69787142D02*
X148559523Y-69834761D01*
X148416666Y-69882380D01*
X148321428Y-69882380D01*
X148178571Y-69834761D01*
X148083333Y-69739523D01*
X148035714Y-69644285D01*
X147988095Y-69453809D01*
X147988095Y-69310952D01*
X148035714Y-69120476D01*
X148083333Y-69025238D01*
X148178571Y-68930000D01*
X148321428Y-68882380D01*
X148416666Y-68882380D01*
X148559523Y-68930000D01*
X148607142Y-68977619D01*
X149559523Y-69882380D02*
X148988095Y-69882380D01*
X149273809Y-69882380D02*
X149273809Y-68882380D01*
X149178571Y-69025238D01*
X149083333Y-69120476D01*
X148988095Y-69168095D01*
X150178571Y-68882380D02*
X150273809Y-68882380D01*
X150369047Y-68930000D01*
X150416666Y-68977619D01*
X150464285Y-69072857D01*
X150511904Y-69263333D01*
X150511904Y-69501428D01*
X150464285Y-69691904D01*
X150416666Y-69787142D01*
X150369047Y-69834761D01*
X150273809Y-69882380D01*
X150178571Y-69882380D01*
X150083333Y-69834761D01*
X150035714Y-69787142D01*
X149988095Y-69691904D01*
X149940476Y-69501428D01*
X149940476Y-69263333D01*
X149988095Y-69072857D01*
X150035714Y-68977619D01*
X150083333Y-68930000D01*
X150178571Y-68882380D01*
%TO.C,R5*%
X158482380Y-103166666D02*
X158006190Y-103500000D01*
X158482380Y-103738095D02*
X157482380Y-103738095D01*
X157482380Y-103357142D01*
X157530000Y-103261904D01*
X157577619Y-103214285D01*
X157672857Y-103166666D01*
X157815714Y-103166666D01*
X157910952Y-103214285D01*
X157958571Y-103261904D01*
X158006190Y-103357142D01*
X158006190Y-103738095D01*
X157482380Y-102261904D02*
X157482380Y-102738095D01*
X157958571Y-102785714D01*
X157910952Y-102738095D01*
X157863333Y-102642857D01*
X157863333Y-102404761D01*
X157910952Y-102309523D01*
X157958571Y-102261904D01*
X158053809Y-102214285D01*
X158291904Y-102214285D01*
X158387142Y-102261904D01*
X158434761Y-102309523D01*
X158482380Y-102404761D01*
X158482380Y-102642857D01*
X158434761Y-102738095D01*
X158387142Y-102785714D01*
%TO.C,J4*%
X150922380Y-54833333D02*
X151636666Y-54833333D01*
X151779523Y-54880952D01*
X151874761Y-54976190D01*
X151922380Y-55119047D01*
X151922380Y-55214285D01*
X151255714Y-53928571D02*
X151922380Y-53928571D01*
X150874761Y-54166666D02*
X151589047Y-54404761D01*
X151589047Y-53785714D01*
%TO.C,J8*%
X163416666Y-125202380D02*
X163416666Y-125916666D01*
X163369047Y-126059523D01*
X163273809Y-126154761D01*
X163130952Y-126202380D01*
X163035714Y-126202380D01*
X164035714Y-125630952D02*
X163940476Y-125583333D01*
X163892857Y-125535714D01*
X163845238Y-125440476D01*
X163845238Y-125392857D01*
X163892857Y-125297619D01*
X163940476Y-125250000D01*
X164035714Y-125202380D01*
X164226190Y-125202380D01*
X164321428Y-125250000D01*
X164369047Y-125297619D01*
X164416666Y-125392857D01*
X164416666Y-125440476D01*
X164369047Y-125535714D01*
X164321428Y-125583333D01*
X164226190Y-125630952D01*
X164035714Y-125630952D01*
X163940476Y-125678571D01*
X163892857Y-125726190D01*
X163845238Y-125821428D01*
X163845238Y-126011904D01*
X163892857Y-126107142D01*
X163940476Y-126154761D01*
X164035714Y-126202380D01*
X164226190Y-126202380D01*
X164321428Y-126154761D01*
X164369047Y-126107142D01*
X164416666Y-126011904D01*
X164416666Y-125821428D01*
X164369047Y-125726190D01*
X164321428Y-125678571D01*
X164226190Y-125630952D01*
%TO.C,SW1*%
X137166666Y-111404761D02*
X137309523Y-111452380D01*
X137547619Y-111452380D01*
X137642857Y-111404761D01*
X137690476Y-111357142D01*
X137738095Y-111261904D01*
X137738095Y-111166666D01*
X137690476Y-111071428D01*
X137642857Y-111023809D01*
X137547619Y-110976190D01*
X137357142Y-110928571D01*
X137261904Y-110880952D01*
X137214285Y-110833333D01*
X137166666Y-110738095D01*
X137166666Y-110642857D01*
X137214285Y-110547619D01*
X137261904Y-110500000D01*
X137357142Y-110452380D01*
X137595238Y-110452380D01*
X137738095Y-110500000D01*
X138071428Y-110452380D02*
X138309523Y-111452380D01*
X138500000Y-110738095D01*
X138690476Y-111452380D01*
X138928571Y-110452380D01*
X139833333Y-111452380D02*
X139261904Y-111452380D01*
X139547619Y-111452380D02*
X139547619Y-110452380D01*
X139452380Y-110595238D01*
X139357142Y-110690476D01*
X139261904Y-110738095D01*
%TO.C,U2*%
X145738095Y-58202380D02*
X145738095Y-59011904D01*
X145785714Y-59107142D01*
X145833333Y-59154761D01*
X145928571Y-59202380D01*
X146119047Y-59202380D01*
X146214285Y-59154761D01*
X146261904Y-59107142D01*
X146309523Y-59011904D01*
X146309523Y-58202380D01*
X146738095Y-58297619D02*
X146785714Y-58250000D01*
X146880952Y-58202380D01*
X147119047Y-58202380D01*
X147214285Y-58250000D01*
X147261904Y-58297619D01*
X147309523Y-58392857D01*
X147309523Y-58488095D01*
X147261904Y-58630952D01*
X146690476Y-59202380D01*
X147309523Y-59202380D01*
%TO.C,J3*%
X131916666Y-59082380D02*
X131916666Y-59796666D01*
X131869047Y-59939523D01*
X131773809Y-60034761D01*
X131630952Y-60082380D01*
X131535714Y-60082380D01*
X132297619Y-59082380D02*
X132916666Y-59082380D01*
X132583333Y-59463333D01*
X132726190Y-59463333D01*
X132821428Y-59510952D01*
X132869047Y-59558571D01*
X132916666Y-59653809D01*
X132916666Y-59891904D01*
X132869047Y-59987142D01*
X132821428Y-60034761D01*
X132726190Y-60082380D01*
X132440476Y-60082380D01*
X132345238Y-60034761D01*
X132297619Y-59987142D01*
%TO.C,R12*%
X142702380Y-82892857D02*
X142226190Y-83226190D01*
X142702380Y-83464285D02*
X141702380Y-83464285D01*
X141702380Y-83083333D01*
X141750000Y-82988095D01*
X141797619Y-82940476D01*
X141892857Y-82892857D01*
X142035714Y-82892857D01*
X142130952Y-82940476D01*
X142178571Y-82988095D01*
X142226190Y-83083333D01*
X142226190Y-83464285D01*
X142702380Y-81940476D02*
X142702380Y-82511904D01*
X142702380Y-82226190D02*
X141702380Y-82226190D01*
X141845238Y-82321428D01*
X141940476Y-82416666D01*
X141988095Y-82511904D01*
X141797619Y-81559523D02*
X141750000Y-81511904D01*
X141702380Y-81416666D01*
X141702380Y-81178571D01*
X141750000Y-81083333D01*
X141797619Y-81035714D01*
X141892857Y-80988095D01*
X141988095Y-80988095D01*
X142130952Y-81035714D01*
X142702380Y-81607142D01*
X142702380Y-80988095D01*
%TO.C,C3*%
X140683333Y-94787142D02*
X140635714Y-94834761D01*
X140492857Y-94882380D01*
X140397619Y-94882380D01*
X140254761Y-94834761D01*
X140159523Y-94739523D01*
X140111904Y-94644285D01*
X140064285Y-94453809D01*
X140064285Y-94310952D01*
X140111904Y-94120476D01*
X140159523Y-94025238D01*
X140254761Y-93930000D01*
X140397619Y-93882380D01*
X140492857Y-93882380D01*
X140635714Y-93930000D01*
X140683333Y-93977619D01*
X141016666Y-93882380D02*
X141635714Y-93882380D01*
X141302380Y-94263333D01*
X141445238Y-94263333D01*
X141540476Y-94310952D01*
X141588095Y-94358571D01*
X141635714Y-94453809D01*
X141635714Y-94691904D01*
X141588095Y-94787142D01*
X141540476Y-94834761D01*
X141445238Y-94882380D01*
X141159523Y-94882380D01*
X141064285Y-94834761D01*
X141016666Y-94787142D01*
%TO.C,C19*%
X135107142Y-123927142D02*
X135059523Y-123974761D01*
X134916666Y-124022380D01*
X134821428Y-124022380D01*
X134678571Y-123974761D01*
X134583333Y-123879523D01*
X134535714Y-123784285D01*
X134488095Y-123593809D01*
X134488095Y-123450952D01*
X134535714Y-123260476D01*
X134583333Y-123165238D01*
X134678571Y-123070000D01*
X134821428Y-123022380D01*
X134916666Y-123022380D01*
X135059523Y-123070000D01*
X135107142Y-123117619D01*
X136059523Y-124022380D02*
X135488095Y-124022380D01*
X135773809Y-124022380D02*
X135773809Y-123022380D01*
X135678571Y-123165238D01*
X135583333Y-123260476D01*
X135488095Y-123308095D01*
X136535714Y-124022380D02*
X136726190Y-124022380D01*
X136821428Y-123974761D01*
X136869047Y-123927142D01*
X136964285Y-123784285D01*
X137011904Y-123593809D01*
X137011904Y-123212857D01*
X136964285Y-123117619D01*
X136916666Y-123070000D01*
X136821428Y-123022380D01*
X136630952Y-123022380D01*
X136535714Y-123070000D01*
X136488095Y-123117619D01*
X136440476Y-123212857D01*
X136440476Y-123450952D01*
X136488095Y-123546190D01*
X136535714Y-123593809D01*
X136630952Y-123641428D01*
X136821428Y-123641428D01*
X136916666Y-123593809D01*
X136964285Y-123546190D01*
X137011904Y-123450952D01*
%TO.C,C14*%
X140107142Y-66357142D02*
X140059523Y-66404761D01*
X139916666Y-66452380D01*
X139821428Y-66452380D01*
X139678571Y-66404761D01*
X139583333Y-66309523D01*
X139535714Y-66214285D01*
X139488095Y-66023809D01*
X139488095Y-65880952D01*
X139535714Y-65690476D01*
X139583333Y-65595238D01*
X139678571Y-65500000D01*
X139821428Y-65452380D01*
X139916666Y-65452380D01*
X140059523Y-65500000D01*
X140107142Y-65547619D01*
X141059523Y-66452380D02*
X140488095Y-66452380D01*
X140773809Y-66452380D02*
X140773809Y-65452380D01*
X140678571Y-65595238D01*
X140583333Y-65690476D01*
X140488095Y-65738095D01*
X141916666Y-65785714D02*
X141916666Y-66452380D01*
X141678571Y-65404761D02*
X141440476Y-66119047D01*
X142059523Y-66119047D01*
%TO.C,C18*%
X157857142Y-124177142D02*
X157809523Y-124224761D01*
X157666666Y-124272380D01*
X157571428Y-124272380D01*
X157428571Y-124224761D01*
X157333333Y-124129523D01*
X157285714Y-124034285D01*
X157238095Y-123843809D01*
X157238095Y-123700952D01*
X157285714Y-123510476D01*
X157333333Y-123415238D01*
X157428571Y-123320000D01*
X157571428Y-123272380D01*
X157666666Y-123272380D01*
X157809523Y-123320000D01*
X157857142Y-123367619D01*
X158809523Y-124272380D02*
X158238095Y-124272380D01*
X158523809Y-124272380D02*
X158523809Y-123272380D01*
X158428571Y-123415238D01*
X158333333Y-123510476D01*
X158238095Y-123558095D01*
X159380952Y-123700952D02*
X159285714Y-123653333D01*
X159238095Y-123605714D01*
X159190476Y-123510476D01*
X159190476Y-123462857D01*
X159238095Y-123367619D01*
X159285714Y-123320000D01*
X159380952Y-123272380D01*
X159571428Y-123272380D01*
X159666666Y-123320000D01*
X159714285Y-123367619D01*
X159761904Y-123462857D01*
X159761904Y-123510476D01*
X159714285Y-123605714D01*
X159666666Y-123653333D01*
X159571428Y-123700952D01*
X159380952Y-123700952D01*
X159285714Y-123748571D01*
X159238095Y-123796190D01*
X159190476Y-123891428D01*
X159190476Y-124081904D01*
X159238095Y-124177142D01*
X159285714Y-124224761D01*
X159380952Y-124272380D01*
X159571428Y-124272380D01*
X159666666Y-124224761D01*
X159714285Y-124177142D01*
X159761904Y-124081904D01*
X159761904Y-123891428D01*
X159714285Y-123796190D01*
X159666666Y-123748571D01*
X159571428Y-123700952D01*
%TO.C,R6*%
X157282380Y-106916666D02*
X156806190Y-107250000D01*
X157282380Y-107488095D02*
X156282380Y-107488095D01*
X156282380Y-107107142D01*
X156330000Y-107011904D01*
X156377619Y-106964285D01*
X156472857Y-106916666D01*
X156615714Y-106916666D01*
X156710952Y-106964285D01*
X156758571Y-107011904D01*
X156806190Y-107107142D01*
X156806190Y-107488095D01*
X156282380Y-106059523D02*
X156282380Y-106250000D01*
X156330000Y-106345238D01*
X156377619Y-106392857D01*
X156520476Y-106488095D01*
X156710952Y-106535714D01*
X157091904Y-106535714D01*
X157187142Y-106488095D01*
X157234761Y-106440476D01*
X157282380Y-106345238D01*
X157282380Y-106154761D01*
X157234761Y-106059523D01*
X157187142Y-106011904D01*
X157091904Y-105964285D01*
X156853809Y-105964285D01*
X156758571Y-106011904D01*
X156710952Y-106059523D01*
X156663333Y-106154761D01*
X156663333Y-106345238D01*
X156710952Y-106440476D01*
X156758571Y-106488095D01*
X156853809Y-106535714D01*
%TO.C,JP2*%
X135202380Y-83333333D02*
X135916666Y-83333333D01*
X136059523Y-83380952D01*
X136154761Y-83476190D01*
X136202380Y-83619047D01*
X136202380Y-83714285D01*
X136202380Y-82857142D02*
X135202380Y-82857142D01*
X135202380Y-82476190D01*
X135250000Y-82380952D01*
X135297619Y-82333333D01*
X135392857Y-82285714D01*
X135535714Y-82285714D01*
X135630952Y-82333333D01*
X135678571Y-82380952D01*
X135726190Y-82476190D01*
X135726190Y-82857142D01*
X135297619Y-81904761D02*
X135250000Y-81857142D01*
X135202380Y-81761904D01*
X135202380Y-81523809D01*
X135250000Y-81428571D01*
X135297619Y-81380952D01*
X135392857Y-81333333D01*
X135488095Y-81333333D01*
X135630952Y-81380952D01*
X136202380Y-81952380D01*
X136202380Y-81333333D01*
%TO.C,F2*%
X151916666Y-57678571D02*
X151583333Y-57678571D01*
X151583333Y-58202380D02*
X151583333Y-57202380D01*
X152059523Y-57202380D01*
X152392857Y-57297619D02*
X152440476Y-57250000D01*
X152535714Y-57202380D01*
X152773809Y-57202380D01*
X152869047Y-57250000D01*
X152916666Y-57297619D01*
X152964285Y-57392857D01*
X152964285Y-57488095D01*
X152916666Y-57630952D01*
X152345238Y-58202380D01*
X152964285Y-58202380D01*
D11*
%TO.C,J5*%
X149374071Y-66052485D02*
X150190500Y-66052485D01*
X150353785Y-66106914D01*
X150462642Y-66215771D01*
X150517071Y-66379057D01*
X150517071Y-66487914D01*
X149374071Y-64963914D02*
X149374071Y-65508200D01*
X149918357Y-65562628D01*
X149863928Y-65508200D01*
X149809500Y-65399342D01*
X149809500Y-65127200D01*
X149863928Y-65018342D01*
X149918357Y-64963914D01*
X150027214Y-64909485D01*
X150299357Y-64909485D01*
X150408214Y-64963914D01*
X150462642Y-65018342D01*
X150517071Y-65127200D01*
X150517071Y-65399342D01*
X150462642Y-65508200D01*
X150408214Y-65562628D01*
D10*
%TO.C,C6*%
X159981552Y-96365312D02*
X160048895Y-96365312D01*
X160183582Y-96432656D01*
X160250926Y-96500000D01*
X160318269Y-96634687D01*
X160318269Y-96769374D01*
X160284598Y-96870389D01*
X160183582Y-97038748D01*
X160082567Y-97139763D01*
X159914208Y-97240778D01*
X159813193Y-97274450D01*
X159678506Y-97274450D01*
X159543819Y-97207106D01*
X159476475Y-97139763D01*
X159409132Y-97005076D01*
X159409132Y-96937732D01*
X158735697Y-96398984D02*
X158870384Y-96533671D01*
X158971399Y-96567343D01*
X159038743Y-96567343D01*
X159207101Y-96533671D01*
X159375460Y-96432656D01*
X159644834Y-96163282D01*
X159678506Y-96062267D01*
X159678506Y-95994923D01*
X159644834Y-95893908D01*
X159510147Y-95759221D01*
X159409132Y-95725549D01*
X159341788Y-95725549D01*
X159240773Y-95759221D01*
X159072414Y-95927580D01*
X159038743Y-96028595D01*
X159038743Y-96095938D01*
X159072414Y-96196954D01*
X159207101Y-96331641D01*
X159308117Y-96365312D01*
X159375460Y-96365312D01*
X159476475Y-96331641D01*
%TO.C,C15*%
X134857142Y-88857142D02*
X134809523Y-88904761D01*
X134666666Y-88952380D01*
X134571428Y-88952380D01*
X134428571Y-88904761D01*
X134333333Y-88809523D01*
X134285714Y-88714285D01*
X134238095Y-88523809D01*
X134238095Y-88380952D01*
X134285714Y-88190476D01*
X134333333Y-88095238D01*
X134428571Y-88000000D01*
X134571428Y-87952380D01*
X134666666Y-87952380D01*
X134809523Y-88000000D01*
X134857142Y-88047619D01*
X135809523Y-88952380D02*
X135238095Y-88952380D01*
X135523809Y-88952380D02*
X135523809Y-87952380D01*
X135428571Y-88095238D01*
X135333333Y-88190476D01*
X135238095Y-88238095D01*
X136714285Y-87952380D02*
X136238095Y-87952380D01*
X136190476Y-88428571D01*
X136238095Y-88380952D01*
X136333333Y-88333333D01*
X136571428Y-88333333D01*
X136666666Y-88380952D01*
X136714285Y-88428571D01*
X136761904Y-88523809D01*
X136761904Y-88761904D01*
X136714285Y-88857142D01*
X136666666Y-88904761D01*
X136571428Y-88952380D01*
X136333333Y-88952380D01*
X136238095Y-88904761D01*
X136190476Y-88857142D01*
%TO.C,R9*%
X157952380Y-98966666D02*
X157476190Y-99300000D01*
X157952380Y-99538095D02*
X156952380Y-99538095D01*
X156952380Y-99157142D01*
X157000000Y-99061904D01*
X157047619Y-99014285D01*
X157142857Y-98966666D01*
X157285714Y-98966666D01*
X157380952Y-99014285D01*
X157428571Y-99061904D01*
X157476190Y-99157142D01*
X157476190Y-99538095D01*
X157952380Y-98490476D02*
X157952380Y-98300000D01*
X157904761Y-98204761D01*
X157857142Y-98157142D01*
X157714285Y-98061904D01*
X157523809Y-98014285D01*
X157142857Y-98014285D01*
X157047619Y-98061904D01*
X157000000Y-98109523D01*
X156952380Y-98204761D01*
X156952380Y-98395238D01*
X157000000Y-98490476D01*
X157047619Y-98538095D01*
X157142857Y-98585714D01*
X157380952Y-98585714D01*
X157476190Y-98538095D01*
X157523809Y-98490476D01*
X157571428Y-98395238D01*
X157571428Y-98204761D01*
X157523809Y-98109523D01*
X157476190Y-98061904D01*
X157380952Y-98014285D01*
%TO.C,J6*%
X167416666Y-74282380D02*
X167416666Y-74996666D01*
X167369047Y-75139523D01*
X167273809Y-75234761D01*
X167130952Y-75282380D01*
X167035714Y-75282380D01*
X168321428Y-74282380D02*
X168130952Y-74282380D01*
X168035714Y-74330000D01*
X167988095Y-74377619D01*
X167892857Y-74520476D01*
X167845238Y-74710952D01*
X167845238Y-75091904D01*
X167892857Y-75187142D01*
X167940476Y-75234761D01*
X168035714Y-75282380D01*
X168226190Y-75282380D01*
X168321428Y-75234761D01*
X168369047Y-75187142D01*
X168416666Y-75091904D01*
X168416666Y-74853809D01*
X168369047Y-74758571D01*
X168321428Y-74710952D01*
X168226190Y-74663333D01*
X168035714Y-74663333D01*
X167940476Y-74710952D01*
X167892857Y-74758571D01*
X167845238Y-74853809D01*
%TO.C,C11*%
X144107142Y-67857142D02*
X144059523Y-67904761D01*
X143916666Y-67952380D01*
X143821428Y-67952380D01*
X143678571Y-67904761D01*
X143583333Y-67809523D01*
X143535714Y-67714285D01*
X143488095Y-67523809D01*
X143488095Y-67380952D01*
X143535714Y-67190476D01*
X143583333Y-67095238D01*
X143678571Y-67000000D01*
X143821428Y-66952380D01*
X143916666Y-66952380D01*
X144059523Y-67000000D01*
X144107142Y-67047619D01*
X145059523Y-67952380D02*
X144488095Y-67952380D01*
X144773809Y-67952380D02*
X144773809Y-66952380D01*
X144678571Y-67095238D01*
X144583333Y-67190476D01*
X144488095Y-67238095D01*
X146011904Y-67952380D02*
X145440476Y-67952380D01*
X145726190Y-67952380D02*
X145726190Y-66952380D01*
X145630952Y-67095238D01*
X145535714Y-67190476D01*
X145440476Y-67238095D01*
%TO.C,R14*%
X140202380Y-82642857D02*
X139726190Y-82976190D01*
X140202380Y-83214285D02*
X139202380Y-83214285D01*
X139202380Y-82833333D01*
X139250000Y-82738095D01*
X139297619Y-82690476D01*
X139392857Y-82642857D01*
X139535714Y-82642857D01*
X139630952Y-82690476D01*
X139678571Y-82738095D01*
X139726190Y-82833333D01*
X139726190Y-83214285D01*
X140202380Y-81690476D02*
X140202380Y-82261904D01*
X140202380Y-81976190D02*
X139202380Y-81976190D01*
X139345238Y-82071428D01*
X139440476Y-82166666D01*
X139488095Y-82261904D01*
X139535714Y-80833333D02*
X140202380Y-80833333D01*
X139154761Y-81071428D02*
X139869047Y-81309523D01*
X139869047Y-80690476D01*
%TO.C,R15*%
X143202380Y-105892857D02*
X142726190Y-106226190D01*
X143202380Y-106464285D02*
X142202380Y-106464285D01*
X142202380Y-106083333D01*
X142250000Y-105988095D01*
X142297619Y-105940476D01*
X142392857Y-105892857D01*
X142535714Y-105892857D01*
X142630952Y-105940476D01*
X142678571Y-105988095D01*
X142726190Y-106083333D01*
X142726190Y-106464285D01*
X143202380Y-104940476D02*
X143202380Y-105511904D01*
X143202380Y-105226190D02*
X142202380Y-105226190D01*
X142345238Y-105321428D01*
X142440476Y-105416666D01*
X142488095Y-105511904D01*
X142202380Y-104035714D02*
X142202380Y-104511904D01*
X142678571Y-104559523D01*
X142630952Y-104511904D01*
X142583333Y-104416666D01*
X142583333Y-104178571D01*
X142630952Y-104083333D01*
X142678571Y-104035714D01*
X142773809Y-103988095D01*
X143011904Y-103988095D01*
X143107142Y-104035714D01*
X143154761Y-104083333D01*
X143202380Y-104178571D01*
X143202380Y-104416666D01*
X143154761Y-104511904D01*
X143107142Y-104559523D01*
%TO.C,F1*%
X137166666Y-58428571D02*
X136833333Y-58428571D01*
X136833333Y-58952380D02*
X136833333Y-57952380D01*
X137309523Y-57952380D01*
X138214285Y-58952380D02*
X137642857Y-58952380D01*
X137928571Y-58952380D02*
X137928571Y-57952380D01*
X137833333Y-58095238D01*
X137738095Y-58190476D01*
X137642857Y-58238095D01*
%TO.C,C7*%
X135333333Y-105107142D02*
X135285714Y-105154761D01*
X135142857Y-105202380D01*
X135047619Y-105202380D01*
X134904761Y-105154761D01*
X134809523Y-105059523D01*
X134761904Y-104964285D01*
X134714285Y-104773809D01*
X134714285Y-104630952D01*
X134761904Y-104440476D01*
X134809523Y-104345238D01*
X134904761Y-104250000D01*
X135047619Y-104202380D01*
X135142857Y-104202380D01*
X135285714Y-104250000D01*
X135333333Y-104297619D01*
X135666666Y-104202380D02*
X136333333Y-104202380D01*
X135904761Y-105202380D01*
%TO.C,C4*%
X150583333Y-102787142D02*
X150535714Y-102834761D01*
X150392857Y-102882380D01*
X150297619Y-102882380D01*
X150154761Y-102834761D01*
X150059523Y-102739523D01*
X150011904Y-102644285D01*
X149964285Y-102453809D01*
X149964285Y-102310952D01*
X150011904Y-102120476D01*
X150059523Y-102025238D01*
X150154761Y-101930000D01*
X150297619Y-101882380D01*
X150392857Y-101882380D01*
X150535714Y-101930000D01*
X150583333Y-101977619D01*
X151440476Y-102215714D02*
X151440476Y-102882380D01*
X151202380Y-101834761D02*
X150964285Y-102549047D01*
X151583333Y-102549047D01*
%TO.C,J2*%
X133416666Y-56702380D02*
X133416666Y-57416666D01*
X133369047Y-57559523D01*
X133273809Y-57654761D01*
X133130952Y-57702380D01*
X133035714Y-57702380D01*
X133845238Y-56797619D02*
X133892857Y-56750000D01*
X133988095Y-56702380D01*
X134226190Y-56702380D01*
X134321428Y-56750000D01*
X134369047Y-56797619D01*
X134416666Y-56892857D01*
X134416666Y-56988095D01*
X134369047Y-57130952D01*
X133797619Y-57702380D01*
X134416666Y-57702380D01*
%TO.C,R4*%
X163687732Y-98047969D02*
X163586717Y-98620389D01*
X164091793Y-98452030D02*
X163384687Y-99159137D01*
X163115312Y-98889763D01*
X163081641Y-98788748D01*
X163081641Y-98721404D01*
X163115312Y-98620389D01*
X163216328Y-98519374D01*
X163317343Y-98485702D01*
X163384687Y-98485702D01*
X163485702Y-98519374D01*
X163755076Y-98788748D01*
X162610236Y-97913282D02*
X163081641Y-97441877D01*
X162509221Y-98351015D02*
X163182656Y-98014297D01*
X162744923Y-97576564D01*
%TO.C,R13*%
X141272380Y-79392857D02*
X140796190Y-79726190D01*
X141272380Y-79964285D02*
X140272380Y-79964285D01*
X140272380Y-79583333D01*
X140320000Y-79488095D01*
X140367619Y-79440476D01*
X140462857Y-79392857D01*
X140605714Y-79392857D01*
X140700952Y-79440476D01*
X140748571Y-79488095D01*
X140796190Y-79583333D01*
X140796190Y-79964285D01*
X141272380Y-78440476D02*
X141272380Y-79011904D01*
X141272380Y-78726190D02*
X140272380Y-78726190D01*
X140415238Y-78821428D01*
X140510476Y-78916666D01*
X140558095Y-79011904D01*
X140272380Y-78107142D02*
X140272380Y-77488095D01*
X140653333Y-77821428D01*
X140653333Y-77678571D01*
X140700952Y-77583333D01*
X140748571Y-77535714D01*
X140843809Y-77488095D01*
X141081904Y-77488095D01*
X141177142Y-77535714D01*
X141224761Y-77583333D01*
X141272380Y-77678571D01*
X141272380Y-77964285D01*
X141224761Y-78059523D01*
X141177142Y-78107142D01*
%TO.C,C1*%
X140623524Y-89359226D02*
X140623524Y-89426569D01*
X140556180Y-89561256D01*
X140488837Y-89628600D01*
X140354149Y-89695943D01*
X140219462Y-89695943D01*
X140118447Y-89662272D01*
X139950088Y-89561256D01*
X139849073Y-89460241D01*
X139748058Y-89291882D01*
X139714386Y-89190867D01*
X139714386Y-89056180D01*
X139781730Y-88921493D01*
X139849073Y-88854149D01*
X139983760Y-88786806D01*
X140051104Y-88786806D01*
X141364302Y-88753134D02*
X140960241Y-89157195D01*
X141162272Y-88955165D02*
X140455165Y-88248058D01*
X140488837Y-88416417D01*
X140488837Y-88551104D01*
X140455165Y-88652119D01*
%TO.C,C8*%
X136333333Y-97357142D02*
X136285714Y-97404761D01*
X136142857Y-97452380D01*
X136047619Y-97452380D01*
X135904761Y-97404761D01*
X135809523Y-97309523D01*
X135761904Y-97214285D01*
X135714285Y-97023809D01*
X135714285Y-96880952D01*
X135761904Y-96690476D01*
X135809523Y-96595238D01*
X135904761Y-96500000D01*
X136047619Y-96452380D01*
X136142857Y-96452380D01*
X136285714Y-96500000D01*
X136333333Y-96547619D01*
X136904761Y-96880952D02*
X136809523Y-96833333D01*
X136761904Y-96785714D01*
X136714285Y-96690476D01*
X136714285Y-96642857D01*
X136761904Y-96547619D01*
X136809523Y-96500000D01*
X136904761Y-96452380D01*
X137095238Y-96452380D01*
X137190476Y-96500000D01*
X137238095Y-96547619D01*
X137285714Y-96642857D01*
X137285714Y-96690476D01*
X137238095Y-96785714D01*
X137190476Y-96833333D01*
X137095238Y-96880952D01*
X136904761Y-96880952D01*
X136809523Y-96928571D01*
X136761904Y-96976190D01*
X136714285Y-97071428D01*
X136714285Y-97261904D01*
X136761904Y-97357142D01*
X136809523Y-97404761D01*
X136904761Y-97452380D01*
X137095238Y-97452380D01*
X137190476Y-97404761D01*
X137238095Y-97357142D01*
X137285714Y-97261904D01*
X137285714Y-97071428D01*
X137238095Y-96976190D01*
X137190476Y-96928571D01*
X137095238Y-96880952D01*
%TO.C,JP1*%
X160566666Y-105312380D02*
X160566666Y-106026666D01*
X160519047Y-106169523D01*
X160423809Y-106264761D01*
X160280952Y-106312380D01*
X160185714Y-106312380D01*
X161042857Y-106312380D02*
X161042857Y-105312380D01*
X161423809Y-105312380D01*
X161519047Y-105360000D01*
X161566666Y-105407619D01*
X161614285Y-105502857D01*
X161614285Y-105645714D01*
X161566666Y-105740952D01*
X161519047Y-105788571D01*
X161423809Y-105836190D01*
X161042857Y-105836190D01*
X162566666Y-106312380D02*
X161995238Y-106312380D01*
X162280952Y-106312380D02*
X162280952Y-105312380D01*
X162185714Y-105455238D01*
X162090476Y-105550476D01*
X161995238Y-105598095D01*
%TO.C,C16*%
X134857142Y-94287142D02*
X134809523Y-94334761D01*
X134666666Y-94382380D01*
X134571428Y-94382380D01*
X134428571Y-94334761D01*
X134333333Y-94239523D01*
X134285714Y-94144285D01*
X134238095Y-93953809D01*
X134238095Y-93810952D01*
X134285714Y-93620476D01*
X134333333Y-93525238D01*
X134428571Y-93430000D01*
X134571428Y-93382380D01*
X134666666Y-93382380D01*
X134809523Y-93430000D01*
X134857142Y-93477619D01*
X135809523Y-94382380D02*
X135238095Y-94382380D01*
X135523809Y-94382380D02*
X135523809Y-93382380D01*
X135428571Y-93525238D01*
X135333333Y-93620476D01*
X135238095Y-93668095D01*
X136666666Y-93382380D02*
X136476190Y-93382380D01*
X136380952Y-93430000D01*
X136333333Y-93477619D01*
X136238095Y-93620476D01*
X136190476Y-93810952D01*
X136190476Y-94191904D01*
X136238095Y-94287142D01*
X136285714Y-94334761D01*
X136380952Y-94382380D01*
X136571428Y-94382380D01*
X136666666Y-94334761D01*
X136714285Y-94287142D01*
X136761904Y-94191904D01*
X136761904Y-93953809D01*
X136714285Y-93858571D01*
X136666666Y-93810952D01*
X136571428Y-93763333D01*
X136380952Y-93763333D01*
X136285714Y-93810952D01*
X136238095Y-93858571D01*
X136190476Y-93953809D01*
%TO.C,R3*%
X163687732Y-95797969D02*
X163586717Y-96370389D01*
X164091793Y-96202030D02*
X163384687Y-96909137D01*
X163115312Y-96639763D01*
X163081641Y-96538748D01*
X163081641Y-96471404D01*
X163115312Y-96370389D01*
X163216328Y-96269374D01*
X163317343Y-96235702D01*
X163384687Y-96235702D01*
X163485702Y-96269374D01*
X163755076Y-96538748D01*
X162744923Y-96269374D02*
X162307190Y-95831641D01*
X162812267Y-95797969D01*
X162711251Y-95696954D01*
X162677580Y-95595938D01*
X162677580Y-95528595D01*
X162711251Y-95427580D01*
X162879610Y-95259221D01*
X162980625Y-95225549D01*
X163047969Y-95225549D01*
X163148984Y-95259221D01*
X163351015Y-95461251D01*
X163384687Y-95562267D01*
X163384687Y-95629610D01*
%TO.C,R1*%
X163937732Y-91547969D02*
X163836717Y-92120389D01*
X164341793Y-91952030D02*
X163634687Y-92659137D01*
X163365312Y-92389763D01*
X163331641Y-92288748D01*
X163331641Y-92221404D01*
X163365312Y-92120389D01*
X163466328Y-92019374D01*
X163567343Y-91985702D01*
X163634687Y-91985702D01*
X163735702Y-92019374D01*
X164005076Y-92288748D01*
X163264297Y-90874534D02*
X163668358Y-91278595D01*
X163466328Y-91076564D02*
X162759221Y-91783671D01*
X162927580Y-91750000D01*
X163062267Y-91749999D01*
X163163282Y-91783671D01*
%TO.C,C5*%
X147787142Y-100666666D02*
X147834761Y-100714285D01*
X147882380Y-100857142D01*
X147882380Y-100952380D01*
X147834761Y-101095238D01*
X147739523Y-101190476D01*
X147644285Y-101238095D01*
X147453809Y-101285714D01*
X147310952Y-101285714D01*
X147120476Y-101238095D01*
X147025238Y-101190476D01*
X146930000Y-101095238D01*
X146882380Y-100952380D01*
X146882380Y-100857142D01*
X146930000Y-100714285D01*
X146977619Y-100666666D01*
X146882380Y-99761904D02*
X146882380Y-100238095D01*
X147358571Y-100285714D01*
X147310952Y-100238095D01*
X147263333Y-100142857D01*
X147263333Y-99904761D01*
X147310952Y-99809523D01*
X147358571Y-99761904D01*
X147453809Y-99714285D01*
X147691904Y-99714285D01*
X147787142Y-99761904D01*
X147834761Y-99809523D01*
X147882380Y-99904761D01*
X147882380Y-100142857D01*
X147834761Y-100238095D01*
X147787142Y-100285714D01*
%TO.C,C9*%
X135583333Y-102607142D02*
X135535714Y-102654761D01*
X135392857Y-102702380D01*
X135297619Y-102702380D01*
X135154761Y-102654761D01*
X135059523Y-102559523D01*
X135011904Y-102464285D01*
X134964285Y-102273809D01*
X134964285Y-102130952D01*
X135011904Y-101940476D01*
X135059523Y-101845238D01*
X135154761Y-101750000D01*
X135297619Y-101702380D01*
X135392857Y-101702380D01*
X135535714Y-101750000D01*
X135583333Y-101797619D01*
X136059523Y-102702380D02*
X136250000Y-102702380D01*
X136345238Y-102654761D01*
X136392857Y-102607142D01*
X136488095Y-102464285D01*
X136535714Y-102273809D01*
X136535714Y-101892857D01*
X136488095Y-101797619D01*
X136440476Y-101750000D01*
X136345238Y-101702380D01*
X136154761Y-101702380D01*
X136059523Y-101750000D01*
X136011904Y-101797619D01*
X135964285Y-101892857D01*
X135964285Y-102130952D01*
X136011904Y-102226190D01*
X136059523Y-102273809D01*
X136154761Y-102321428D01*
X136345238Y-102321428D01*
X136440476Y-102273809D01*
X136488095Y-102226190D01*
X136535714Y-102130952D01*
D12*
%TO.C,R10*%
X140810654Y-86549580D02*
X140450420Y-86189346D01*
X141549580Y-85810654D02*
X141189346Y-85450420D01*
%TO.C,C2*%
X150690000Y-83283767D02*
X150690000Y-82991233D01*
X151710000Y-83283767D02*
X151710000Y-82991233D01*
%TO.C,R11*%
X147477500Y-83254724D02*
X147477500Y-82745276D01*
X148522500Y-83254724D02*
X148522500Y-82745276D01*
%TO.C,C12*%
X146065000Y-59690000D02*
X146065000Y-63600000D01*
X147935000Y-59690000D02*
X146065000Y-59690000D01*
X147935000Y-63600000D02*
X147935000Y-59690000D01*
%TO.C,J7*%
X144920000Y-53330000D02*
X144920000Y-50670000D01*
X144920000Y-53330000D02*
X157680000Y-53330000D01*
X142320000Y-53330000D02*
X142320000Y-52000000D01*
X157680000Y-53330000D02*
X157680000Y-50670000D01*
X144920000Y-50670000D02*
X157680000Y-50670000D01*
X143650000Y-53330000D02*
X142320000Y-53330000D01*
%TO.C,R2*%
X161189346Y-90850420D02*
X161549580Y-91210654D01*
X160450420Y-91589346D02*
X160810654Y-91949580D01*
%TO.C,C17*%
X163896267Y-77760000D02*
X163603733Y-77760000D01*
X163896267Y-76740000D02*
X163603733Y-76740000D01*
%TO.C,C13*%
X139685000Y-60290000D02*
X137815000Y-60290000D01*
X139685000Y-64200000D02*
X139685000Y-60290000D01*
X137815000Y-60290000D02*
X137815000Y-64200000D01*
%TO.C,U1*%
X143445120Y-93171751D02*
X142497597Y-94119275D01*
X149328249Y-85945120D02*
X150000000Y-85273369D01*
X143445120Y-91828249D02*
X142773369Y-92500000D01*
X150671751Y-99054880D02*
X150000000Y-99726631D01*
X157226631Y-92500000D02*
X156554880Y-91828249D01*
X142773369Y-92500000D02*
X143445120Y-93171751D01*
X156554880Y-93171751D02*
X157226631Y-92500000D01*
X150000000Y-85273369D02*
X150671751Y-85945120D01*
X150000000Y-99726631D02*
X149328249Y-99054880D01*
%TO.C,R7*%
X153677500Y-102745276D02*
X153677500Y-103254724D01*
X154722500Y-102745276D02*
X154722500Y-103254724D01*
%TO.C,D1*%
X146750000Y-55250000D02*
X146750000Y-57250000D01*
X146750000Y-55250000D02*
X150650000Y-55250000D01*
X146750000Y-57250000D02*
X150650000Y-57250000D01*
%TO.C,R8*%
X152477500Y-106495276D02*
X152477500Y-107004724D01*
X153522500Y-106495276D02*
X153522500Y-107004724D01*
%TO.C,Y1*%
X137250000Y-101275000D02*
X141250000Y-101275000D01*
X137250000Y-98125000D02*
X137250000Y-101275000D01*
%TO.C,J1*%
X160125000Y-53065000D02*
X160125000Y-54615000D01*
X165975000Y-56315000D02*
X165175000Y-56315000D01*
X165575000Y-55865000D02*
X165975000Y-56315000D01*
X165175000Y-56315000D02*
X165575000Y-55865000D01*
X168425000Y-53065000D02*
X168125000Y-53065000D01*
X168125000Y-50265000D02*
X168125000Y-53065000D01*
X160425000Y-50265000D02*
X160425000Y-53065000D01*
X168425000Y-53065000D02*
X168425000Y-54615000D01*
X160425000Y-53065000D02*
X160125000Y-53065000D01*
%TO.C,D2*%
X146000000Y-57250000D02*
X146000000Y-55250000D01*
X146000000Y-57250000D02*
X142100000Y-57250000D01*
X146000000Y-55250000D02*
X142100000Y-55250000D01*
%TO.C,C10*%
X149396267Y-67490000D02*
X149103733Y-67490000D01*
X149396267Y-68510000D02*
X149103733Y-68510000D01*
%TO.C,R5*%
X157122500Y-102745276D02*
X157122500Y-103254724D01*
X156077500Y-102745276D02*
X156077500Y-103254724D01*
%TO.C,J4*%
X153800000Y-55830000D02*
X152470000Y-55830000D01*
X155070000Y-55830000D02*
X157670000Y-55830000D01*
X157670000Y-55830000D02*
X157670000Y-53170000D01*
X155070000Y-55830000D02*
X155070000Y-53170000D01*
X152470000Y-55830000D02*
X152470000Y-54500000D01*
X155070000Y-53170000D02*
X157670000Y-53170000D01*
%TO.C,J8*%
X164000000Y-126670000D02*
X165330000Y-126670000D01*
X165330000Y-126670000D02*
X165330000Y-128000000D01*
X134730000Y-126670000D02*
X134730000Y-129330000D01*
X162730000Y-129330000D02*
X134730000Y-129330000D01*
X162730000Y-126670000D02*
X162730000Y-129330000D01*
X162730000Y-126670000D02*
X134730000Y-126670000D01*
%TO.C,SW1*%
X139850000Y-106300000D02*
X140150000Y-106300000D01*
X137650000Y-106300000D02*
X137350000Y-106300000D01*
X140150000Y-109600000D02*
X139850000Y-109600000D01*
X137350000Y-106300000D02*
X137350000Y-109600000D01*
X140150000Y-106300000D02*
X140150000Y-109600000D01*
X137350000Y-109600000D02*
X137650000Y-109600000D01*
%TO.C,U2*%
X145360000Y-61560000D02*
X145130000Y-61560000D01*
X140640000Y-61560000D02*
X140640000Y-58840000D01*
X145360000Y-58840000D02*
X145360000Y-61560000D01*
X140870000Y-62700000D02*
X140870000Y-61560000D01*
X140640000Y-61560000D02*
X140870000Y-61560000D01*
X140640000Y-58840000D02*
X141950000Y-58840000D01*
X144050000Y-58840000D02*
X145360000Y-58840000D01*
%TO.C,J3*%
X130920000Y-61960000D02*
X130920000Y-60630000D01*
X130920000Y-129330000D02*
X133580000Y-129330000D01*
X130920000Y-63230000D02*
X130920000Y-129330000D01*
X130920000Y-63230000D02*
X133580000Y-63230000D01*
X130920000Y-60630000D02*
X132250000Y-60630000D01*
X133580000Y-63230000D02*
X133580000Y-129330000D01*
%TO.C,R12*%
X142977500Y-82504724D02*
X142977500Y-81995276D01*
X144022500Y-82504724D02*
X144022500Y-81995276D01*
%TO.C,C3*%
X140996267Y-93510000D02*
X140703733Y-93510000D01*
X140996267Y-92490000D02*
X140703733Y-92490000D01*
%TO.C,C19*%
X135603733Y-124490000D02*
X135896267Y-124490000D01*
X135603733Y-125510000D02*
X135896267Y-125510000D01*
%TO.C,C14*%
X142011252Y-64985000D02*
X141488748Y-64985000D01*
X142011252Y-63515000D02*
X141488748Y-63515000D01*
%TO.C,C18*%
X158353733Y-125760000D02*
X158646267Y-125760000D01*
X158353733Y-124740000D02*
X158646267Y-124740000D01*
%TO.C,R6*%
X155922500Y-106495276D02*
X155922500Y-107004724D01*
X154877500Y-106495276D02*
X154877500Y-107004724D01*
%TO.C,JP2*%
X136690000Y-86310000D02*
X138810000Y-86310000D01*
X138810000Y-82250000D02*
X138810000Y-86310000D01*
X136690000Y-82250000D02*
X138810000Y-82250000D01*
X136690000Y-80190000D02*
X137750000Y-80190000D01*
X136690000Y-82250000D02*
X136690000Y-86310000D01*
X136690000Y-81250000D02*
X136690000Y-80190000D01*
%TO.C,F2*%
X155171267Y-56740000D02*
X154828733Y-56740000D01*
X155171267Y-57760000D02*
X154828733Y-57760000D01*
D13*
%TO.C,J5*%
X166502000Y-74370000D02*
X166502000Y-59130000D01*
X164216000Y-74370000D02*
X166502000Y-74370000D01*
X166502000Y-59130000D02*
X164216000Y-59130000D01*
X151100000Y-74371000D02*
X151100000Y-59004000D01*
X154160000Y-59004000D02*
X161296000Y-59004000D01*
X151100000Y-59004000D02*
X152240000Y-59004000D01*
X151898000Y-74371000D02*
X151100000Y-74371000D01*
X153929000Y-74370000D02*
X161422000Y-74370000D01*
D12*
%TO.C,C6*%
X158857198Y-93535949D02*
X159064051Y-93742802D01*
X158135949Y-94257198D02*
X158342802Y-94464051D01*
%TO.C,C15*%
X135646267Y-89490000D02*
X135353733Y-89490000D01*
X135646267Y-90510000D02*
X135353733Y-90510000D01*
%TO.C,R9*%
X158477500Y-98545276D02*
X158477500Y-99054724D01*
X159522500Y-98545276D02*
X159522500Y-99054724D01*
%TO.C,J6*%
X166420000Y-77160000D02*
X166420000Y-75830000D01*
X166420000Y-129290000D02*
X169080000Y-129290000D01*
X166420000Y-75830000D02*
X167750000Y-75830000D01*
X166420000Y-78430000D02*
X169080000Y-78430000D01*
X169080000Y-78430000D02*
X169080000Y-129290000D01*
X166420000Y-78430000D02*
X166420000Y-129290000D01*
%TO.C,C11*%
X143965000Y-64738748D02*
X143965000Y-65261252D01*
X145435000Y-64738748D02*
X145435000Y-65261252D01*
%TO.C,R14*%
X141522500Y-82504724D02*
X141522500Y-81995276D01*
X140477500Y-82504724D02*
X140477500Y-81995276D01*
%TO.C,R15*%
X141772500Y-105245276D02*
X141772500Y-105754724D01*
X140727500Y-105245276D02*
X140727500Y-105754724D01*
%TO.C,F1*%
X139328733Y-56490000D02*
X139671267Y-56490000D01*
X139328733Y-57510000D02*
X139671267Y-57510000D01*
%TO.C,C7*%
X138896267Y-105210000D02*
X138603733Y-105210000D01*
X138896267Y-104190000D02*
X138603733Y-104190000D01*
%TO.C,C4*%
X151546267Y-101510000D02*
X151253733Y-101510000D01*
X151546267Y-100490000D02*
X151253733Y-100490000D01*
%TO.C,J2*%
X137075000Y-55865000D02*
X137475000Y-56315000D01*
X137475000Y-56315000D02*
X136675000Y-56315000D01*
X139925000Y-53065000D02*
X139925000Y-54615000D01*
X131625000Y-53065000D02*
X131625000Y-54615000D01*
X139625000Y-50265000D02*
X139625000Y-53065000D01*
X131925000Y-53065000D02*
X131625000Y-53065000D01*
X136675000Y-56315000D02*
X137075000Y-55865000D01*
X131925000Y-50265000D02*
X131925000Y-53065000D01*
X139925000Y-53065000D02*
X139625000Y-53065000D01*
%TO.C,R4*%
X161544111Y-95805185D02*
X161904345Y-96165419D01*
X160805185Y-96544111D02*
X161165419Y-96904345D01*
%TO.C,R13*%
X141727500Y-79004724D02*
X141727500Y-78495276D01*
X142772500Y-79004724D02*
X142772500Y-78495276D01*
%TO.C,C1*%
X141757198Y-90464051D02*
X141964051Y-90257198D01*
X141035949Y-89742802D02*
X141242802Y-89535949D01*
%TO.C,C8*%
X139353733Y-96690000D02*
X139646267Y-96690000D01*
X139353733Y-97710000D02*
X139646267Y-97710000D01*
%TO.C,JP1*%
X162460000Y-104860000D02*
X161400000Y-104860000D01*
X162460000Y-98740000D02*
X160340000Y-98740000D01*
X162460000Y-103800000D02*
X162460000Y-104860000D01*
X162460000Y-102800000D02*
X162460000Y-98740000D01*
X160340000Y-102800000D02*
X160340000Y-98740000D01*
X162460000Y-102800000D02*
X160340000Y-102800000D01*
%TO.C,C16*%
X135646267Y-93010000D02*
X135353733Y-93010000D01*
X135646267Y-91990000D02*
X135353733Y-91990000D01*
%TO.C,R3*%
X160650420Y-93989346D02*
X161010654Y-94349580D01*
X161389346Y-93250420D02*
X161749580Y-93610654D01*
%TO.C,R1*%
X160850420Y-89789346D02*
X161210654Y-90149580D01*
X161589346Y-89050420D02*
X161949580Y-89410654D01*
%TO.C,C5*%
X146510000Y-100353733D02*
X146510000Y-100646267D01*
X145490000Y-100353733D02*
X145490000Y-100646267D01*
%TO.C,C9*%
X139103733Y-101690000D02*
X139396267Y-101690000D01*
X139103733Y-102710000D02*
X139396267Y-102710000D01*
%TD*%
M02*
